<?xml version="1.0" encoding="UTF-8" standalone="no"?>
<svg
   xmlns:dc="http://purl.org/dc/elements/1.1/"
   xmlns:cc="http://creativecommons.org/ns#"
   xmlns:rdf="http://www.w3.org/1999/02/22-rdf-syntax-ns#"
   xmlns:svg="http://www.w3.org/2000/svg"
   xmlns="http://www.w3.org/2000/svg"
   xmlns:sodipodi="http://sodipodi.sourceforge.net/DTD/sodipodi-0.dtd"
   xmlns:inkscape="http://www.inkscape.org/namespaces/inkscape"
   inkscape:version="1.0 (4035a4fb49, 2020-05-01)"
   sodipodi:docname="computer.svg"
   version="1.0"
   height="31.999998"
   width="31.999998"
   id="svg2">
  <sodipodi:namedview
     inkscape:document-rotation="0"
     inkscape:pagecheckerboard="true"
     fit-margin-bottom="0"
     fit-margin-right="0"
     fit-margin-left="0"
     fit-margin-top="0"
     inkscape:measure-end="26,9"
     inkscape:measure-start="26,19"
     inkscape:guide-bbox="true"
     showguides="true"
     inkscape:current-layer="svg2"
     inkscape:window-maximized="1"
     inkscape:window-y="0"
     inkscape:window-x="0"
     inkscape:cy="37.588864"
     inkscape:cx="-55.948878"
     inkscape:zoom="5"
     showgrid="true"
     id="namedview24"
     inkscape:window-height="1009"
     inkscape:window-width="1920"
     inkscape:pageshadow="2"
     inkscape:pageopacity="1"
     guidetolerance="10"
     gridtolerance="10"
     objecttolerance="10"
     borderopacity="1"
     bordercolor="#666666"
     pagecolor="#c8c8c8" />
  <metadata
     id="metadata7">
    <rdf:RDF>
      <cc:Work
         rdf:about="">
        <dc:format>image/svg+xml</dc:format>
        <dc:type
           rdf:resource="http://purl.org/dc/dcmitype/StillImage" />
        <dc:title></dc:title>
      </cc:Work>
    </rdf:RDF>
  </metadata>
  <defs
     id="defs5">
    <style
       type="text/css"
       id="current-color-scheme">
      .ColorScheme-Text {
        color:#31363b;
      }
      .ColorScheme-Background{
        color:#E9E8E8;
      }
      .ColorScheme-ViewText {
        color:#000000;
      }
      .ColorScheme-ViewBackground{
        color:#ffffff;
      }
      .ColorScheme-ViewHover {
        color:#000000;
      }
      .ColorScheme-ViewFocus{
        color:#5a5a5a;
      }
      .ColorScheme-ButtonText {
        color:#000000;
      }
      .ColorScheme-ButtonBackground{
        color:#E9E8E8;
      }
      .ColorScheme-ButtonHover {
        color:#1489ff;
      }
      .ColorScheme-ButtonFocus{
        color:#2B74C7;
      }
</style>
  </defs>
  <g
     transform="translate(-38.000002,-16.000037)"
     id="16-16-computer-laptop"
     style="clip-rule:evenodd;fill-rule:evenodd;stroke-linejoin:round;stroke-miterlimit:1.41420996">
    <path
       sodipodi:nodetypes="cccccsscccccccccccc"
       d="m 2,12.000015 v -10 h 12 v 10 c 0,0 -0.950468,-1.5e-5 1,-1.5e-5 0,1.104 -0.896,2 -2,2 H 3 c -1.104,0 -2,-0.896 -2,-2 2.1549708,3.82e-4 1,1.5e-5 1,1.5e-5 z M 10,12 H 6 v 1 h 4 z M 13,3 H 3 v 8 h 10 z"
       style="fill:#202020;fill-opacity:1"
       id="path2-16"
       inkscape:connector-curvature="0" />
    <rect
       style="fill:#ffffff;fill-opacity:0;stroke-width:0.9977811"
       id="rect817-1"
       width="16"
       height="16"
       x="0"
       y="0" />
  </g>
  <g
     transform="matrix(3.7795275,0,0,3.7795275,-22.000002,-1090.5195)"
     id="22-22-computer">
    <path
       sodipodi:nodetypes="ccccccccccccccccccccccccccccccccccc"
       inkscape:connector-curvature="0"
       style="fill:#202020;fill-opacity:1;stroke:none;stroke-width:0.99999994;stroke-linecap:round;stroke-linejoin:miter;stroke-miterlimit:4;stroke-dasharray:none;stroke-dashoffset:0;stroke-opacity:1"
       d="M 2,2 V 20 H 8 V 2 Z m 7,0 v 1 h 10 l 1e-6,11.999911 H 9.0000005 v 1 H 12.000001 L 12,19 H 9 v 1 h 6 v -1 h -2 l 10e-7,-3.000089 h 7 v -1 L 20,3 V 2 H 19 Z M 3,3 H 7 V 19 H 3 Z m 2.9999995,13 h -2 v 2 h 2 z"
       id="rect835"
       transform="matrix(0.26458333,0,0,0.26458333,0,291.17915)" />
    <rect
       style="fill:#00ff00;fill-opacity:0;stroke:none;stroke-width:0.26458332;stroke-linecap:round;stroke-linejoin:miter;stroke-miterlimit:4;stroke-dasharray:none;stroke-dashoffset:0;stroke-opacity:1"
       id="rect864"
       width="5.8208332"
       height="5.8208332"
       x="0"
       y="291.17914" />
  </g>
  <g
     transform="matrix(3.7795275,0,0,3.7795275,-9.0402766e-7,-1090.5196)"
     id="computer">
    <path
       sodipodi:nodetypes="ccccccccccccccccccccccccccccccccccccccccccc"
       style="opacity:1;fill:#202020;fill-opacity:1;fill-rule:evenodd;stroke-width:0.26499999;stroke-miterlimit:4;stroke-dasharray:none"
       d="m 0.79375006,289.32707 v 6.87917 H 3.4395834 v -6.87917 z m 2.91041664,0 v 0.26458 h 3.7041666 v 4.7625 H 5.0270833 4.7625 3.7041667 v 0.26458 H 4.7625 v 1.32292 H 3.7041667 v 0.26459 H 4.7625 h 0.2645833 0.79375 v -0.26459 h -0.79375 v -1.32292 h 2.6458333 v -4.76249 -0.26459 -0.26458 z m -2.6458333,0.26458 H 3.175 v 6.35 H 1.0583334 Z M 1.5875,294.61874 v 0.79375 h 1.0583334 v -0.79375 z m 0.2645834,0.26458 H 2.38125 v 0.26458 H 1.8520834 Z"
       id="rect825-23"
       inkscape:connector-curvature="0" />
    <rect
       style="fill:#00ff00;fill-opacity:0;stroke:none;stroke-width:0.26458332;stroke-linecap:round;stroke-linejoin:miter;stroke-miterlimit:4;stroke-dasharray:none;stroke-dashoffset:0;stroke-opacity:1"
       id="rect900"
       width="8.4666662"
       height="8.4666662"
       x="2.3919065e-07"
       y="288.53333" />
  </g>
  <g
     transform="matrix(3.7795275,0,0,3.7795275,-38.000002,-1090.5195)"
     id="16-16-computer">
    <path
       sodipodi:nodetypes="ccccccccccccccccccccccccccccccccccc"
       inkscape:connector-curvature="0"
       style="fill:#202020;fill-opacity:1;stroke:none;stroke-width:0.99999994;stroke-linecap:round;stroke-linejoin:miter;stroke-miterlimit:4;stroke-dasharray:none;stroke-dashoffset:0;stroke-opacity:1"
       d="M 1,1 V 15 H 6 V 1 Z m 6,0 v 1 h 7 v 8.999911 H 7.0000004 v 1 h 2 L 9,14 H 7 v 1 h 4 v -1 h -1 v -2.000089 h 5 v -1 V 2 1 H 14 Z M 2,2 H 5 V 14 H 2 Z m 1,9 v 2 h 1 v -2 z"
       transform="matrix(0.26458333,0,0,0.26458333,0,292.76665)"
       id="rect933" />
    <rect
       style="fill:#00ffff;fill-opacity:0;stroke:none;stroke-width:0.26458332;stroke-linecap:round;stroke-linejoin:miter;stroke-miterlimit:4;stroke-dasharray:none;stroke-dashoffset:0;stroke-opacity:1"
       id="rect954"
       width="4.2333331"
       height="4.2333331"
       x="-3.6311283e-16"
       y="292.76663" />
  </g>
  <g
     transform="translate(-1.9040277e-6,-32.000037)"
     id="computer-laptop">
    <rect
       style="clip-rule:evenodd;fill:#ffffff;fill-opacity:0;fill-rule:evenodd;stroke-linejoin:round;stroke-miterlimit:1.41420996"
       id="rect817-6-7"
       width="32"
       height="32"
       x="0"
       y="0" />
    <path
       inkscape:connector-curvature="0"
       style="opacity:1;fill:#202020;fill-opacity:1;stroke-width:6;stroke-miterlimit:4;stroke-dasharray:none"
       d="M 5,5 V 22 H 4 3 v 1 1 c 0,1.662 1.3380001,3 3,3 h 20 c 1.662,0 3,-1.338 3,-3 V 23 22 H 28 27 V 5 Z M 6,6 H 26 V 22 H 6 Z M 7,7 V 21 H 25 V 7 Z M 8,8 H 24 V 20 H 8 Z M 4,23 h 1 8 v 2 h 1 4 1 v -2 h 8 1 v 1 c 0,1.108 -0.892,2 -2,2 H 6 C 4.892,26 4,25.108 4,24 Z m 10,0 h 4 v 1 h -4 z m 8,1 v 1 h 3 v -1 z"
       id="rect860" />
    <rect
       style="opacity:1;fill:#00ffff;fill-opacity:0;stroke-width:6;stroke-miterlimit:4;stroke-dasharray:none"
       id="rect897"
       width="32"
       height="32"
       x="0"
       y="0" />
  </g>
  <g
     transform="translate(-22,-22.000037)"
     id="22-22-computer-laptop">
    <path
       inkscape:connector-curvature="0"
       style="opacity:1;fill:#202020;fill-opacity:1;stroke-width:6;stroke-miterlimit:4;stroke-dasharray:none"
       d="M 3,3 V 15 H 2 1 v 1 1 c 0,1.108 0.8920001,2 2,2 h 16 c 1.108,0 2,-0.892 2,-2 V 16 15 H 20 19 V 3 Z M 4,4 H 18 V 15 H 17 V 14 5 H 5 v 9 1 H 4 Z m 2,2 h 10 v 8 H 6 Z M 2,16 h 1 6 v 1 h 4 v -1 h 3 3 1 v 1 c 0,0.554 -0.446,1 -1,1 H 3 C 2.4460001,18 2,17.554 2,17 Z"
       id="rect915" />
    <rect
       style="opacity:1;fill:#00ffff;fill-opacity:0;stroke-width:6;stroke-miterlimit:4;stroke-dasharray:none"
       id="rect945"
       width="22"
       height="22"
       x="0"
       y="0" />
  </g>
</svg>
