<?xml version="1.0" encoding="UTF-8" standalone="no"?>
<svg
   xmlns:dc="http://purl.org/dc/elements/1.1/"
   xmlns:cc="http://creativecommons.org/ns#"
   xmlns:rdf="http://www.w3.org/1999/02/22-rdf-syntax-ns#"
   xmlns:svg="http://www.w3.org/2000/svg"
   xmlns="http://www.w3.org/2000/svg"
   xmlns:sodipodi="http://sodipodi.sourceforge.net/DTD/sodipodi-0.dtd"
   xmlns:inkscape="http://www.inkscape.org/namespaces/inkscape"
   viewBox="0 0 32 32"
   sodipodi:docname="phone.svg"
   inkscape:version="1.0 (4035a4fb49, 2020-05-01)"
   version="1.1"
   id="svg3869"
   height="32"
   width="32">
  <defs
     id="defs3871">
    <style
       id="current-color-scheme"
       type="text/css">
      .ColorScheme-Text {
        color:#31363b;
      }
      .ColorScheme-Background {
        color:#eff0f1;
      }
      .ColorScheme-Highlight {
        color:#3daee9;
      }
      .ColorScheme-ViewText {
        color:#31363b;
      }
      .ColorScheme-ViewBackground {
        color:#fcfcfc;
      }
      .ColorScheme-ViewHover {
        color:#93cee9;
      }
      .ColorScheme-ViewFocus{
        color:#3daee9;
      }
      .ColorScheme-ButtonText {
        color:#31363b;
      }
      .ColorScheme-ButtonBackground {
        color:#eff0f1;
      }
      .ColorScheme-ButtonHover {
        color:#93cee9;
      }
      .ColorScheme-ButtonFocus{
        color:#3daee9;
      }
      </style>
  </defs>
  <sodipodi:namedview
     inkscape:document-rotation="0"
     inkscape:pagecheckerboard="true"
     inkscape:showpageshadow="false"
     inkscape:window-maximized="1"
     inkscape:window-y="0"
     inkscape:window-x="0"
     inkscape:window-height="1009"
     inkscape:window-width="1920"
     fit-margin-bottom="0"
     fit-margin-right="0"
     fit-margin-left="0"
     fit-margin-top="0"
     showgrid="true"
     inkscape:current-layer="layer1"
     inkscape:document-units="px"
     inkscape:cy="15.777885"
     inkscape:cx="5.6222361"
     inkscape:zoom="8.275359"
     inkscape:pageshadow="2"
     inkscape:pageopacity="0.0"
     borderopacity="1.0"
     bordercolor="#666666"
     pagecolor="#ffffff"
     id="base">
    <inkscape:grid
       originy="4.999982"
       originx="5"
       id="grid4132"
       type="xygrid" />
  </sodipodi:namedview>
  <metadata
     id="metadata3874">
    <rdf:RDF>
      <cc:Work
         rdf:about="">
        <dc:format>image/svg+xml</dc:format>
        <dc:type
           rdf:resource="http://purl.org/dc/dcmitype/StillImage" />
        <dc:title />
      </cc:Work>
    </rdf:RDF>
  </metadata>
  <g
     transform="translate(-321,-529.36218)"
     id="layer1"
     inkscape:groupmode="layer"
     inkscape:label="Capa 1">
    <g
       id="phone"
       transform="translate(0,-2.6171875e-6)">
      <path
         inkscape:connector-curvature="0"
         style="fill:#202020;fill-opacity:1;stroke-width:0.97014242"
         d="M 10,3 C 8.8919918,3 8,3.8919918 8,5 v 19 1 2 c 0,1.108008 0.8919918,2 2,2 h 12 c 1.108008,0 2,-0.891992 2,-2 V 25 24 5 C 24,3.8919918 23.108008,3 22,3 Z m 0,1 h 12 c 0.554008,0 1,0.4459918 1,1 V 24 H 9 V 5 C 9,4.4459918 9.4459918,4 10,4 Z m 3,1 v 1 h 6 V 5 Z M 9,25 h 14 v 2 c 0,0.554008 -0.445992,1 -1,1 H 10 C 9.4459918,28 9,27.554008 9,27 Z m 5,1 v 1 h 4 v -1 z"
         transform="translate(321,529.36218)"
         id="rect832" />
      <rect
         style="fill:#00ff00;fill-opacity:0"
         id="rect850"
         width="32"
         height="32"
         x="321"
         y="529.36218" />
    </g>
    <g
       id="22-22-phone"
       transform="translate(0,-2.6171875e-6)">
      <path
         inkscape:connector-curvature="0"
         style="fill:#202020;fill-opacity:1;stroke-width:0.92582011"
         d="M 7,2 C 5.8919918,2 5,2.8919918 5,4 v 11 1 2 c 0,1.108008 0.8919918,2 2,2 h 8 c 1.108008,0 2,-0.891992 2,-2 V 16 15 4 C 17,2.8919918 16.108008,2 15,2 Z m 0,1 h 8 c 0.554008,0 1,0.4459918 1,1 V 15 H 6 V 4 C 6,3.4459918 6.4459918,3 7,3 Z m 1,1 v 1 h 6 V 4 Z M 6,16 h 10 v 2 c 0,0.554008 -0.445992,1 -1,1 H 7 C 6.4459918,19 6,18.554008 6,18 Z m 3,1 v 1 h 4 v -1 z"
         transform="translate(299,534.36218)"
         id="rect865" />
      <rect
         style="fill:#008000;fill-opacity:0"
         id="rect877"
         width="22"
         height="22"
         x="299"
         y="534.36218" />
    </g>
    <g
       id="16-16-phone"
       transform="translate(0,-2.6171875e-6)">
      <path
         style="fill:#202020;fill-opacity:1;stroke-width:0.9534626"
         d="M 4,1 C 3.4459918,1 3,1.4459918 3,2 v 12 c 0,0.554008 0.4459918,1 1,1 h 8 c 0.554008,0 1,-0.445992 1,-1 V 2 C 13,1.4459918 12.554008,1 12,1 Z m 0,1 h 8 V 12 H 4 Z m 2,1 v 1 h 4 V 3 Z m 1,10.000017 h 2 v 1 H 7 Z"
         transform="translate(283,537.36218)"
         id="rect891"
         inkscape:connector-curvature="0"
         sodipodi:nodetypes="sssssssssccccccccccccccc" />
      <rect
         style="fill:#ffff00;fill-opacity:0"
         id="rect906"
         width="16"
         height="16"
         x="283"
         y="537.36218" />
    </g>
    <g
       id="phone-battery">
      <g
         transform="translate(0,-32.000003)"
         id="phone-3">
        <path
           id="rect832-6"
           transform="translate(321,529.36218)"
           d="M 10,3 C 8.8919918,3 8,3.8919918 8,5 v 19 1 2 c 0,1.108008 0.8919918,2 2,2 h 12 c 1.108008,0 2,-0.891992 2,-2 V 25 24 5 C 24,3.8919918 23.108008,3 22,3 Z m 0,1 h 12 c 0.554008,0 1,0.4459918 1,1 V 24 H 9 V 5 C 9,4.4459918 9.4459918,4 10,4 Z m 3,1 v 1 h 6 V 5 Z M 9,25 h 14 v 2 c 0,0.554008 -0.445992,1 -1,1 H 10 C 9.4459918,28 9,27.554008 9,27 Z m 5,1 v 1 h 4 v -1 z"
           style="fill:#202020;fill-opacity:1;stroke-width:0.97014242"
           inkscape:connector-curvature="0" />
        <rect
           y="529.36218"
           x="321"
           height="32"
           width="32"
           id="rect850-7"
           style="fill:#00ff00;fill-opacity:0" />
      </g>
      <path
         style="clip-rule:evenodd;fill:#202020;fill-rule:evenodd;stroke-linejoin:round;stroke-miterlimit:1.41420996;fill-opacity:1"
         d="m 337,506.3622 -3,7 h 3 v 5 l 3,-7 h -3 z"
         id="path2-8-2"
         inkscape:connector-curvature="0"
         sodipodi:nodetypes="ccccccc" />
    </g>
    <rect
       y="510.36221"
       x="367"
       height="32"
       width="32"
       id="rect823-7"
       style="clip-rule:evenodd;fill:#ffffff;fill-opacity:0;fill-rule:evenodd;stroke-width:1.03616464;stroke-linejoin:round;stroke-miterlimit:1.41420996" />
    <g
       id="22-22-phone-battery">
      <path
         inkscape:connector-curvature="0"
         style="fill:#202020;fill-opacity:1;stroke-width:0.92582011"
         d="m 306,504.36218 c -1.10801,0 -2,0.89199 -2,2 v 11 1 2 c 0,1.10801 0.89199,2 2,2 h 8 c 1.10801,0 2,-0.89199 2,-2 v -2 -1 -11 c 0,-1.10801 -0.89199,-2 -2,-2 z m 0,1 h 8 c 0.55401,0 1,0.44599 1,1 v 11 h -10 v -11 c 0,-0.55401 0.44599,-1 1,-1 z m 1,1 v 1 h 6 v -1 z m -2,12 h 10 v 2 c 0,0.55401 -0.44599,1 -1,1 h -8 c -0.55401,0 -1,-0.44599 -1,-1 z m 3,1 v 1 h 4 v -1 z"
         id="rect865-3" />
      <rect
         style="fill:#008000;fill-opacity:0"
         id="rect877-5"
         width="22"
         height="22"
         x="299"
         y="502.36218" />
      <path
         style="clip-rule:evenodd;fill:#202020;fill-rule:evenodd;stroke-linejoin:round;stroke-miterlimit:1.41420996;fill-opacity:1"
         d="m 310,508.3622 -2,5 h 2 v 3 l 2,-5 h -2 z"
         id="path2-97-9"
         inkscape:connector-curvature="0"
         sodipodi:nodetypes="ccccccc" />
    </g>
    <rect
       y="515.36218"
       x="365"
       height="22"
       width="22"
       id="rect822-3"
       style="clip-rule:evenodd;fill:#ffffff;fill-opacity:0;fill-rule:evenodd;stroke-width:1.01527214;stroke-linejoin:round;stroke-miterlimit:1.41420996" />
    <g
       id="16-16-phone-battery">
      <path
         style="fill:#202020;fill-opacity:1;stroke-width:0.9534626"
         d="m 287,506.36218 c -0.55401,0 -1,0.44599 -1,1 v 12 c 0,0.55401 0.44599,1 1,1 h 8 c 0.55401,0 1,-0.44599 1,-1 v -12 c 0,-0.55401 -0.44599,-1 -1,-1 z m 0,1 h 8 v 10 h -8 z m 3,11.00002 h 2 v 1 h -2 z"
         id="rect891-2"
         inkscape:connector-curvature="0"
         sodipodi:nodetypes="ssssssssscccccccccc" />
      <rect
         style="fill:#ffff00;fill-opacity:0"
         id="rect906-9"
         width="16"
         height="16"
         x="283"
         y="505.36218" />
      <path
         id="path4-2-1"
         style="clip-rule:evenodd;fill:#202020;fill-rule:evenodd;stroke-linejoin:round;stroke-miterlimit:1.41420996;fill-opacity:1"
         d="m 291,511.3622 h 2 l -2,5 v -3 h -2 l 2,-5 z"
         inkscape:connector-curvature="0" />
    </g>
  </g>
</svg>
