<?xml version="1.0" encoding="UTF-8" standalone="no"?>
<svg
   xmlns:dc="http://purl.org/dc/elements/1.1/"
   xmlns:cc="http://creativecommons.org/ns#"
   xmlns:rdf="http://www.w3.org/1999/02/22-rdf-syntax-ns#"
   xmlns:svg="http://www.w3.org/2000/svg"
   xmlns="http://www.w3.org/2000/svg"
   xmlns:sodipodi="http://sodipodi.sourceforge.net/DTD/sodipodi-0.dtd"
   xmlns:inkscape="http://www.inkscape.org/namespaces/inkscape"
   version="1.1"
   id="svg2"
   viewBox="0 0 22 22"
   inkscape:version="0.92.4 (5da689c313, 2019-01-14)"
   sodipodi:docname="process.svg"
   width="22"
   height="22">
  <sodipodi:namedview
     pagecolor="#ffffff"
     bordercolor="#666666"
     borderopacity="1"
     objecttolerance="10"
     gridtolerance="10"
     guidetolerance="10"
     inkscape:pageopacity="0"
     inkscape:pageshadow="2"
     inkscape:window-width="1920"
     inkscape:window-height="1009"
     id="namedview12"
     showgrid="true"
     inkscape:zoom="8"
     inkscape:cx="-5.0547686"
     inkscape:cy="16.460667"
     inkscape:window-x="0"
     inkscape:window-y="0"
     inkscape:window-maximized="1"
     inkscape:current-layer="svg2"
     fit-margin-top="0"
     fit-margin-left="0"
     fit-margin-right="0"
     fit-margin-bottom="0"
     showguides="true"
     inkscape:guide-bbox="true"
     inkscape:snap-bbox="true"
     inkscape:bbox-nodes="true"
     inkscape:pagecheckerboard="true">
    <inkscape:grid
       type="xygrid"
       id="grid820"
       originx="0"
       originy="0" />
  </sodipodi:namedview>
  <metadata
     id="metadata18">
    <rdf:RDF>
      <cc:Work
         rdf:about="">
        <dc:format>image/svg+xml</dc:format>
        <dc:type
           rdf:resource="http://purl.org/dc/dcmitype/StillImage" />
        <dc:title />
      </cc:Work>
    </rdf:RDF>
  </metadata>
  <defs
     id="defs3051">
    <style
       id="current-color-scheme"
       type="text/css">
      .ColorScheme-Text {
        color:#31363b;
      }
      </style>
  </defs>
  <g
     id="process-stop"
     transform="matrix(-1,0,0,1,22,0)">
    <path
       id="path819"
       d="m 11,2 a 9,9 0 0 0 -9,9 9,9 0 0 0 0.8867188,3.871094 L 3.640625,14.117188 A 8,8 0 0 1 3,11 8,8 0 0 1 11,3 8,8 0 0 1 14.123047,3.6347656 l 0.75,-0.75 A 9,9 0 0 0 11,2 Z m 8.113281,5.1289062 -0.753906,0.7539063 A 8,8 0 0 1 19,11 8,8 0 0 1 11,19 8,8 0 0 1 7.8769531,18.365234 l -0.75,0.75 A 9,9 0 0 0 11,20 9,9 0 0 0 20,11 9,9 0 0 0 19.113281,7.1289062 Z M 6,10 v 2 h 10 v -2 z"
       style="fill:#202020;fill-opacity:1"
       inkscape:connector-curvature="0" />
    <rect
       y="0"
       x="0"
       height="22"
       width="22"
       id="rect832"
       style="fill:#ff8080;fill-opacity:0;stroke-width:6;stroke-miterlimit:4;stroke-dasharray:none" />
  </g>
</svg>
