<?xml version="1.0" encoding="UTF-8" standalone="no"?>
<svg
   xmlns:dc="http://purl.org/dc/elements/1.1/"
   xmlns:cc="http://creativecommons.org/ns#"
   xmlns:rdf="http://www.w3.org/1999/02/22-rdf-syntax-ns#"
   xmlns:svg="http://www.w3.org/2000/svg"
   xmlns="http://www.w3.org/2000/svg"
   xmlns:sodipodi="http://sodipodi.sourceforge.net/DTD/sodipodi-0.dtd"
   xmlns:inkscape="http://www.inkscape.org/namespaces/inkscape"
   version="1.1"
   id="svg2"
   viewBox="0 0 32 32"
   inkscape:version="0.92.4 (5da689c313, 2019-01-14)"
   sodipodi:docname="redshift.svg"
   width="32"
   height="32">
  <sodipodi:namedview
     pagecolor="#ffffff"
     bordercolor="#666666"
     borderopacity="1"
     objecttolerance="10"
     gridtolerance="10"
     guidetolerance="10"
     inkscape:pageopacity="0"
     inkscape:pageshadow="2"
     inkscape:window-width="1920"
     inkscape:window-height="1009"
     id="namedview12"
     showgrid="true"
     inkscape:zoom="8.0000004"
     inkscape:cx="-6.8641746"
     inkscape:cy="7.0227757"
     inkscape:window-x="0"
     inkscape:window-y="0"
     inkscape:window-maximized="1"
     inkscape:current-layer="svg2"
     inkscape:pagecheckerboard="true"
     fit-margin-top="0"
     fit-margin-left="0"
     fit-margin-right="0"
     fit-margin-bottom="0"
     showguides="true"
     inkscape:guide-bbox="true"
     inkscape:snap-bbox="true"
     inkscape:bbox-nodes="true">
    <sodipodi:guide
       position="27,29"
       orientation="0,1"
       id="guide820"
       inkscape:locked="false" />
    <sodipodi:guide
       position="17.852246,3"
       orientation="0,1"
       id="guide822"
       inkscape:locked="false" />
    <sodipodi:guide
       position="3,13.351562"
       orientation="1,0"
       id="guide824"
       inkscape:locked="false" />
    <sodipodi:guide
       position="29,6.351562"
       orientation="1,0"
       id="guide826"
       inkscape:locked="false" />
    <inkscape:grid
       type="xygrid"
       id="grid833" />
  </sodipodi:namedview>
  <metadata
     id="metadata18">
    <rdf:RDF>
      <cc:Work
         rdf:about="">
        <dc:format>image/svg+xml</dc:format>
        <dc:type
           rdf:resource="http://purl.org/dc/dcmitype/StillImage" />
        <dc:title />
      </cc:Work>
    </rdf:RDF>
  </metadata>
  <defs
     id="defs3051">
    <style
       id="current-color-scheme"
       type="text/css">
      .ColorScheme-Text {
        color:#31363b;
      }
      </style>
  </defs>
  <circle
     style="fill:#202020;fill-opacity:1;stroke-width:6;stroke-linecap:round;stroke-linejoin:round;stroke-miterlimit:4;stroke-dasharray:none"
     id="path903"
     cx="-15"
     cy="16.648438"
     r="0" />
  <g
     id="22-22-redshift-status-off"
     transform="translate(-22,10)">
    <path
       inkscape:connector-curvature="0"
       id="rect884-3"
       d="M 11,2 A 6,6 0 0 0 5,8 6,6 0 0 0 8,13.1875 V 14 c 0,0.888703 0.3898959,1.676215 1,2.224609 V 18 c 0,1.108 0.892,2 2,2 1.108,0 2,-0.892 2,-2 V 16.224609 C 13.610104,15.676215 14,14.888703 14,14 V 13.189453 A 6,6 0 0 0 17,8 6,6 0 0 0 11,2 Z m 0,1 a 5,5 0 0 1 5,5 5,5 0 0 1 -5,5 5,5 0 0 1 -5,-5 5,5 0 0 1 5,-5 z m 0,1 v 1 a 3,3 0 0 1 3,3 h 1 A 4,4 0 0 0 11,4 Z m 2,9.648438 V 14 c 0,1.108 -0.892,2 -2,2 C 9.892,16 9,15.108 9,14 V 13.650391 A 6,6 0 0 0 11,14 6,6 0 0 0 13,13.648438 Z m -3,3.169921 C 10.31399,16.929312 10.647083,17 11,17 c 0.352917,0 0.68601,-0.07069 1,-0.181641 V 18 c 0,0.554 -0.446,1 -1,1 -0.554,0 -1,-0.446 -1,-1 z"
       style="fill:#202020;fill-opacity:1;stroke-width:6;stroke-linecap:round;stroke-linejoin:round;stroke-miterlimit:4;stroke-dasharray:none" />
    <rect
       y="0"
       x="0"
       height="22"
       width="22"
       id="rect883-5"
       style="fill:#00ffff;fill-opacity:0;stroke-width:6;stroke-miterlimit:4;stroke-dasharray:none" />
  </g>
  <g
     id="22-22-redshift-status-on"
     transform="translate(-44,9.648438)">
    <path
       id="rect884-7"
       d="M 11,2 C 7.6862915,2 5,4.6862915 5,8 c 0.00309,2.140502 1.1462679,4.11725 3,5.1875 V 14 c 0,0.888703 0.389896,1.676215 1,2.224609 V 18 c 0,1.108 0.892,2 2,2 1.108,0 2,-0.892 2,-2 V 16.224609 C 13.610104,15.676215 14,14.888703 14,14 V 13.189453 C 15.854335,12.118854 16.997608,10.1412 17,8 17,4.6862915 14.313708,2 11,2 Z m 0,2 c 2.209139,0 4,1.790861 4,4 H 14 C 14,6.3431458 12.656854,5 11,5 Z m 2,9.648438 V 14 c 0,1.108 -0.892,2 -2,2 -1.108,0 -2,-0.892 -2,-2 v -0.349609 c 0.6419656,0.229305 1.318314,0.347534 2,0.349609 0.681799,-0.0027 1.35815,-0.121592 2,-0.351562 z m -3,3.169921 C 10.31399,16.929312 10.647083,17 11,17 c 0.352917,0 0.68601,-0.07069 1,-0.181641 V 18 c 0,0.554 -0.446,1 -1,1 -0.554,0 -1,-0.446 -1,-1 z"
       style="fill:#202020;fill-opacity:1;stroke-width:6;stroke-linecap:round;stroke-linejoin:round;stroke-miterlimit:4;stroke-dasharray:none"
       inkscape:connector-curvature="0" />
    <rect
       y="0"
       x="0"
       height="22"
       width="22"
       id="rect883-5-0"
       style="fill:#00ffff;fill-opacity:0;stroke-width:6;stroke-miterlimit:4;stroke-dasharray:none" />
  </g>
  <g
     id="redshift-status-on">
    <path
       sodipodi:nodetypes="sccscssscsccsccccccsssccccscsssc"
       inkscape:connector-curvature="0"
       id="path893"
       d="m 16,3 c -4.970563,0 -9,4.0294373 -9,9 0.00139,3.41766 1.9384378,6.539634 5,8.058594 V 22 c 0,1.482971 0.807292,2.75838 2,3.449219 V 27 c 0,1.108 0.892,2 2,2 1.108,0 2,-0.892 2,-2 V 25.449219 C 19.192708,24.75838 20,23.482971 20,22 V 20.050781 C 23.059043,18.533074 24.995644,15.414844 25,12 25,7.0294373 20.970563,3 16,3 Z m 0,3 c 3.313708,0 6,2.6862915 6,6 H 21 C 21,9.2385763 18.761424,7 16,7 Z m 3,14.472656 V 22 c 0,1.662 -1.338,3 -3,3 -1.662,0 -3,-1.338 -3,-3 V 20.474609 C 13.96289,20.8189 14.977414,20.996573 16,21 c 1.022699,-0.0041 2.037226,-0.182388 3,-0.527344 z m -4,5.388672 C 15.320999,25.943828 15.65255,26 16,26 c 0.34745,0 0.679001,-0.05617 1,-0.138672 V 27 c 0,0.554 -0.446,1 -1,1 -0.554,0 -1,-0.446 -1,-1 z"
       style="fill:#202020;fill-opacity:1;stroke-width:6.19677353;stroke-miterlimit:4;stroke-dasharray:none" />
    <rect
       y="0"
       x="0"
       height="32"
       width="32"
       id="rect864"
       style="fill:#00ffff;fill-opacity:0;stroke-width:6;stroke-miterlimit:4;stroke-dasharray:none" />
  </g>
  <g
     id="redshift-status-off"
     transform="translate(32)">
    <path
       inkscape:connector-curvature="0"
       id="path828-6"
       d="m 16,3 a 9,9 0 0 0 -9,9 9,9 0 0 0 5,8.058594 V 22 c 0,1.482971 0.807292,2.75838 2,3.449219 V 27 c 0,1.108 0.892,2 2,2 1.108,0 2,-0.892 2,-2 V 25.449219 C 19.192708,24.75838 20,23.482971 20,22 V 20.050781 A 9,9 0 0 0 25,12 9,9 0 0 0 16,3 Z m 0,1 a 8,8 0 0 1 8,8 8,8 0 0 1 -8,8 8,8 0 0 1 -8,-8 8,8 0 0 1 8,-8 z m 0,2 v 1 a 5,5 0 0 1 5,5 h 1 A 6,6 0 0 0 16,6 Z m 3,14.472656 V 22 c 0,1.662 -1.338,3 -3,3 -1.662,0 -3,-1.338 -3,-3 V 20.474609 A 9,9 0 0 0 16,21 9,9 0 0 0 19,20.472656 Z m -4,5.388672 C 15.320999,25.943831 15.65255,26 16,26 c 0.34745,0 0.679001,-0.05617 1,-0.138672 V 27 c 0,0.554 -0.446,1 -1,1 -0.554,0 -1,-0.446 -1,-1 z"
       style="fill:#202020;fill-opacity:1;stroke-width:6.54846191;stroke-miterlimit:4;stroke-dasharray:none" />
    <rect
       y="0"
       x="0"
       height="32"
       width="32"
       id="rect864-7"
       style="fill:#00ffff;fill-opacity:0;stroke-width:6;stroke-miterlimit:4;stroke-dasharray:none" />
  </g>
</svg>
