<?xml version="1.0" encoding="UTF-8" standalone="no"?>
<svg
   xmlns:dc="http://purl.org/dc/elements/1.1/"
   xmlns:cc="http://creativecommons.org/ns#"
   xmlns:rdf="http://www.w3.org/1999/02/22-rdf-syntax-ns#"
   xmlns:svg="http://www.w3.org/2000/svg"
   xmlns="http://www.w3.org/2000/svg"
   xmlns:xlink="http://www.w3.org/1999/xlink"
   xmlns:sodipodi="http://sodipodi.sourceforge.net/DTD/sodipodi-0.dtd"
   xmlns:inkscape="http://www.inkscape.org/namespaces/inkscape"
   inkscape:version="1.0 (4035a4fb49, 2020-05-01)"
   sodipodi:docname="start.svg"
   viewBox="0 0 32 32"
   id="svg2"
   version="1.1"
   width="32"
   height="32">
  <sodipodi:namedview
     inkscape:document-rotation="0"
     inkscape:current-layer="svg2"
     inkscape:window-maximized="1"
     inkscape:window-y="0"
     inkscape:window-x="0"
     inkscape:cy="38.58296"
     inkscape:cx="-8.0867591"
     inkscape:zoom="7.375"
     inkscape:pagecheckerboard="true"
     showgrid="false"
     id="namedview45"
     inkscape:window-height="1009"
     inkscape:window-width="1920"
     inkscape:pageshadow="2"
     inkscape:pageopacity="0"
     guidetolerance="10"
     gridtolerance="10"
     objecttolerance="10"
     borderopacity="1"
     bordercolor="#666666"
     pagecolor="#ffffff" />
  <metadata
     id="metadata21">
    <rdf:RDF>
      <cc:Work
         rdf:about="">
        <dc:format>image/svg+xml</dc:format>
        <dc:type
           rdf:resource="http://purl.org/dc/dcmitype/StillImage" />
        <dc:title />
      </cc:Work>
    </rdf:RDF>
  </metadata>
  <defs
     id="defs3051">
    <style
       type="text/css"
       id="current-color-scheme">
      .ColorScheme-Text {
        color:#31363b;
      }
      </style>
    <linearGradient
       xlink:href="#linearGradient4894"
       id="linearGradient2928"
       gradientUnits="userSpaceOnUse"
       gradientTransform="matrix(1.3124999,0,0,1.3124999,-8.2682286,-85.586097)"
       x1="9.5249996"
       y1="290.91458"
       x2="9.5249996"
       y2="285.62292" />
    <linearGradient
       id="linearGradient4894">
      <stop
         id="stop4890"
         offset="0"
         style="stop-color:#306dee;stop-opacity:1" />
      <stop
         id="stop4892"
         offset="1"
         style="stop-color:#5795fb;stop-opacity:1" />
    </linearGradient>
    <linearGradient
       xlink:href="#linearGradient4894"
       id="linearGradient2384-1-8"
       gradientUnits="userSpaceOnUse"
       gradientTransform="matrix(1.3499999,0,0,1.3499999,-8.6254162,-96.39618)"
       x1="9.5249996"
       y1="290.91458"
       x2="9.5249996"
       y2="285.62292" />
    <linearGradient
       xlink:href="#linearGradient4894"
       id="linearGradient1020"
       gradientUnits="userSpaceOnUse"
       gradientTransform="matrix(1.3999999,0,0,1.3999999,-9.1016664,-110.80962)"
       x1="9.5249996"
       y1="290.91458"
       x2="9.5249996"
       y2="285.62292" />
    <linearGradient
       xlink:href="#linearGradient4894"
       id="linearGradient884"
       gradientUnits="userSpaceOnUse"
       gradientTransform="matrix(1.3999999,0,0,1.3999999,-9.1016664,-110.80962)"
       x1="9.5249996"
       y1="290.91458"
       x2="9.5249996"
       y2="285.62292" />
    <linearGradient
       inkscape:collect="always"
       id="linearGradient1115">
      <stop
         style="stop-color:#5348bf;stop-opacity:1"
         offset="0"
         id="stop1111" />
      <stop
         style="stop-color:#195da6;stop-opacity:1"
         offset="1"
         id="stop1113" />
    </linearGradient>
    <linearGradient
       id="linearGradient889"
       inkscape:collect="always">
      <stop
         id="stop885"
         offset="0"
         style="stop-color:#6e56f5;stop-opacity:1" />
      <stop
         id="stop887"
         offset="1"
         style="stop-color:#24cef5;stop-opacity:1" />
    </linearGradient>
    <linearGradient
       inkscape:collect="always"
       xlink:href="#linearGradient1115"
       id="linearGradient922"
       gradientUnits="userSpaceOnUse"
       gradientTransform="translate(22,-290.64999)"
       x1="-21"
       y1="321.64999"
       x2="9"
       y2="291.64999" />
    <linearGradient
       inkscape:collect="always"
       id="linearGradient921">
      <stop
         style="stop-color:#248052;stop-opacity:1"
         offset="0"
         id="stop917" />
      <stop
         style="stop-color:#0e44b2;stop-opacity:1"
         offset="1"
         id="stop919" />
    </linearGradient>
    <linearGradient
       inkscape:collect="always"
       xlink:href="#linearGradient889"
       id="linearGradient924"
       gradientUnits="userSpaceOnUse"
       gradientTransform="matrix(3.7795275,0,0,3.7795275,-15.928569,-1087.2339)"
       x1="5.008184"
       y1="295.33688"
       x2="11.887351"
       y2="288.45773" />
    <linearGradient
       inkscape:collect="always"
       xlink:href="#linearGradient1115"
       id="linearGradient1003"
       x1="4.9994597"
       y1="310.65024"
       x2="26.99946"
       y2="287.65024"
       gradientUnits="userSpaceOnUse" />
    <linearGradient
       inkscape:collect="always"
       xlink:href="#linearGradient921"
       id="linearGradient947"
       gradientUnits="userSpaceOnUse"
       x1="32"
       y1="337.64999"
       x2="54"
       y2="315.64999"
       gradientTransform="translate(-32,-315.64999)" />
    <linearGradient
       inkscape:collect="always"
       xlink:href="#linearGradient889"
       id="linearGradient951"
       gradientUnits="userSpaceOnUse"
       gradientTransform="matrix(2.6996625,0,0,2.6996625,-11.80612,-777.02419)"
       x1="5.008184"
       y1="295.33688"
       x2="11.887351"
       y2="288.45773" />
    <linearGradient
       inkscape:collect="always"
       xlink:href="#linearGradient1115"
       id="linearGradient995"
       x1="4"
       y1="19"
       x2="18"
       y2="5"
       gradientUnits="userSpaceOnUse" />
    <linearGradient
       y2="315.64999"
       x2="54"
       y1="337.64999"
       x1="32"
       gradientTransform="translate(-32,-315.64999)"
       gradientUnits="userSpaceOnUse"
       id="linearGradient1185"
       xlink:href="#linearGradient1115"
       inkscape:collect="always" />
  </defs>
  <g
     id="start-here-kde">
    <path
       id="rect843-1-3"
       d="m 3,1 h 26 c 1.108,0 2,0.892 2,2 v 26 c 0,1.108 -0.892,2 -2,2 H 3 C 1.892,31 1,30.108 1,29 V 3 C 1,1.892 1.892,1 3,1 Z"
       style="opacity:1;fill:url(#linearGradient922);fill-opacity:1.0;stroke:none;stroke-width:2.39314;stroke-linecap:round;stroke-linejoin:round;stroke-miterlimit:4;stroke-dasharray:none;stroke-opacity:1"
       inkscape:connector-curvature="0" />
    <path
       id="rect843-3-2"
       d="m 3,2 h 26 c 0.553999,0 1,0.446 1,1 v 26 c 0,0.554 -0.446001,1 -1,1 H 3 C 2.446,30 2,29.554 2,29 V 3 C 2,2.446 2.446,2 3,2 Z"
       style="opacity:1;fill:url(#linearGradient924);fill-opacity:1.0;stroke:none;stroke-width:2.2336;stroke-linecap:round;stroke-linejoin:round;stroke-miterlimit:4;stroke-dasharray:none;stroke-opacity:1"
       inkscape:connector-curvature="0" />
    <rect
       y="0"
       x="0"
       height="32"
       width="32"
       id="rect944-9"
       style="fill:#ff00ff;fill-opacity:0;stroke-linecap:butt;stroke-linejoin:miter;paint-order:markers stroke fill" />
    <g
       id="g840"
       transform="translate(5.4047543e-4,-282.65025)">
      <path
         inkscape:connector-curvature="0"
         id="rect4119-0"
         d="m 18.986324,287.64998 a 1.0001,1.0001 0 0 0 -0.693359,0.29297 l -2,2 a 1.0001,1.0001 0 0 0 0,1.41406 l 4.292969,4.29298 -4.292969,4.29296 a 1.0001,1.0001 0 0 0 0,1.41407 l 2,1.99999 a 1.0001,1.0001 0 0 0 1.414062,0 l 7,-7 a 1.0001,1.0001 0 0 0 0,-1.41405 l -7,-7.00001 a 1.0001,1.0001 0 0 0 -0.720703,-0.29297 z m -8.986328,2 c -1.108,0 -2,0.892 -2,2.00001 0,1.10799 0.892,1.99999 2,1.99999 1.108,0 2,-0.892 2,-1.99999 0,-1.10801 -0.892,-2.00001 -2,-2.00001 z m -2,6.00001 c -1.661994,0 -3,1.338 -3,3 0,1.66198 1.338006,3 3,3 1.661994,0 3,-1.33802 3,-3 0,-1.662 -1.338006,-3 -3,-3 z m 4,6.99999 c -2.216,0 -4,1.78401 -4,4.00001 0,2.21601 1.784,4 4,4 2.216,0 4,-1.78399 4,-4 0,-2.216 -1.784,-4.00001 -4,-4.00001 z"
         style="fill:url(#linearGradient1003);fill-opacity:1.0;stroke-width:0.639998" />
      <path
         inkscape:connector-curvature="0"
         style="fill:#eff6fe;fill-opacity:1;stroke-width:0.639998"
         d="m 18.985452,286.65063 a 1.0001,1.0001 0 0 0 -0.69141,0.29297 l -2.00195,1.99805 a 1.0001,1.0001 0 0 0 0,1.41406 l 4.29492,4.29492 -4.29492,4.29297 a 1.0001,1.0001 0 0 0 0,1.41406 l 2.00195,2 a 1.0001,1.0001 0 0 0 1.41406,0 l 6.99805,-7 a 1.0001,1.0001 0 0 0 0,-1.41406 l -6.99805,-7 a 1.0001,1.0001 0 0 0 -0.72265,-0.29297 z m -8.98633,2 c -1.108,0 -2,0.892 -2,2 0,1.108 0.892,2 2,2 1.108,0 2,-0.892 2,-2 0,-1.108 -0.892,-2 -2,-2 z m -2,6 c -1.66199,0 -3,1.338 -3,3 0,1.66199 1.33801,3 3,3 1.66199,0 3,-1.33801 3,-3 0,-1.662 -1.33801,-3 -3,-3 z m 4,7 c -2.216,0 -4,1.78401 -4,4 0,2.21601 1.784,4 4,4 2.216,0 4,-1.78399 4,-4 0,-2.21599 -1.784,-4 -4,-4 z"
         id="rect4119-72" />
    </g>
  </g>
  <g
     id="22-22-start-here-kde"
     transform="translate(5,32)">
    <path
       inkscape:connector-curvature="0"
       id="rect1446-2-7"
       d="m 2,0 h 18 c 1.108,0 2,0.892 2,2 v 18 c 0,1.108 -0.892,2 -2,2 H 2 C 0.892,22 0,21.108 0,20 V 2 C 0,0.892 0.892,0 2,0 Z"
       style="opacity:1;vector-effect:none;fill:url(#linearGradient1185);fill-opacity:1.0;stroke:none;stroke-width:2;stroke-linecap:round;stroke-linejoin:round;stroke-miterlimit:4;stroke-dasharray:none;stroke-dashoffset:0;stroke-opacity:1" />
    <path
       inkscape:connector-curvature="0"
       id="rect1446-4-9-5"
       d="m 2,1 h 18 c 0.554,0 1,0.446 1,1 v 18 c 0,0.554 -0.446,1 -1,1 H 2 C 1.446,21 1,20.554 1,20 V 2 C 1,1.446 1.446,1 2,1 Z"
       style="opacity:1;vector-effect:none;fill:url(#linearGradient947);fill-opacity:1;stroke:none;stroke-width:2;stroke-linecap:round;stroke-linejoin:round;stroke-miterlimit:4;stroke-dasharray:none;stroke-dashoffset:0;stroke-opacity:1" />
    <path
       id="rect843-3-3-1-9"
       d="M 1.714286,1 H 20.285714 C 20.681428,1 21,1.31857 21,1.71429 V 20.28571 C 21,20.68143 20.681428,21 20.285714,21 H 1.714286 C 1.318572,21 1,20.68143 1,20.28571 V 1.71429 C 1,1.31857 1.318572,1 1.714286,1 Z"
       style="opacity:1;fill:url(#linearGradient951);fill-opacity:1.0;stroke:none;stroke-width:1.59543;stroke-linecap:round;stroke-linejoin:round;stroke-miterlimit:4;stroke-dasharray:none;stroke-opacity:1"
       inkscape:connector-curvature="0" />
    <g
       id="g1008">
      <path
         inkscape:connector-curvature="0"
         d="m 13,5 -2,2 3,3 -3,3 2,2 5,-5 z M 7,6 C 6.446,6 6,6.446 6,7 6,7.554 6.446,8 7,8 7.554,8 8,7.554 8,7 8,6.446 7.554,6 7,6 Z M 5.5,10 C 4.669,10 4,10.669 4,11.5 4,12.331 4.669,13 5.5,13 6.331,13 7,12.331 7,11.5 7,10.669 6.331,10 5.5,10 Z m 3,4 C 7.115,14 6,15.115 6,16.5 6,17.885 7.115,19 8.5,19 9.885,19 11,17.885 11,16.5 11,15.115 9.885,14 8.5,14 Z"
         style="color:#31363b;fill:url(#linearGradient995);fill-opacity:1.0;stroke:none"
         class="ColorScheme-Text"
         id="path4-0" />
      <path
         inkscape:connector-curvature="0"
         d="m 13,4 -2,2 3,3 -3,3 2,2 5,-5 z M 7,5 C 6.446,5 6,5.446 6,6 6,6.554 6.446,7 7,7 7.554,7 8,6.554 8,6 8,5.446 7.554,5 7,5 Z M 5.5,9 C 4.669,9 4,9.669 4,10.5 4,11.331 4.669,12 5.5,12 6.331,12 7,11.331 7,10.5 7,9.669 6.331,9 5.5,9 Z m 3,4 C 7.115,13 6,14.115 6,15.5 6,16.885 7.115,18 8.5,18 9.885,18 11,16.885 11,15.5 11,14.115 9.885,13 8.5,13 Z"
         style="color:#31363b;fill:#eff6fe;fill-opacity:1;stroke:none"
         class="ColorScheme-Text"
         id="path4" />
    </g>
  </g>
  <g
     id="16-16-start-here-kde"
     transform="translate(8,55.000004)">
    <path
       inkscape:connector-curvature="0"
       d="m 10,1 -2,2 3,3 -3,3 2,2 5,-5 z M 4,2 C 3.446,2 3,2.446 3,3 3,3.554 3.446,4 4,4 4.554,4 5,3.554 5,3 5,2.446 4.554,2 4,2 Z M 2.5,6 C 1.669,6 1,6.669 1,7.5 1,8.331 1.669,9 2.5,9 3.331,9 4,8.331 4,7.5 4,6.669 3.331,6 2.5,6 Z m 3,4 C 4.115,10 3,11.115 3,12.5 3,13.885 4.115,15 5.5,15 6.885,15 8,13.885 8,12.5 8,11.115 6.885,10 5.5,10 Z"
       style="color:#31363b;fill:#202020;fill-opacity:1;stroke:none"
       class="ColorScheme-Text"
       id="path893" />
    <rect
       y="0"
       x="0"
       height="16"
       width="16"
       id="rect917"
       style="opacity:1;fill:#ffffff;fill-opacity:0;stroke-width:6;stroke-miterlimit:4;stroke-dasharray:none" />
  </g>
</svg>
